<svg xmlns="http://www.w3.org/2000/svg" width="31" height="25" viewBox="0 0 31 25"><path fill="#FFF" d="M15.5,6 C16.8807119,6 18,7.11928813 18,8.5 C18,9.21341003 17.7011769,9.85702617 17.2218694,10.3125097 L19.6253416,14.1572743 C19.8975807,14.0555898 20.1922985,14 20.5,14 C21.8807119,14 23,15.1192881 23,16.5 C23,17.8807119 21.8807119,19 20.5,19 C19.2906746,19 18.2819003,18.1413382 18.0500973,17.0004345 L12.9499027,17.0004345 C12.7180997,18.1413382 11.7093254,19 10.5,19 C9.11928813,19 8,17.8807119 8,16.5 C8,15.1192881 9.11928813,14 10.5,14 C10.8077261,14 11.1024664,14.0555987 11.3747235,14.1572986 L13.7781306,10.3125097 C13.2988231,9.85702617 13,9.21341003 13,8.5 C13,7.11928813 14.1192881,6 15.5,6 Z M16.3746584,10.8427257 C16.1024193,10.9444102 15.8077015,11 15.5,11 C15.1922985,11 14.8975807,10.9444102 14.6253416,10.8427257 L12.2224992,14.688089 C12.5865692,15.0343024 12.8464094,15.4891014 12.9501074,16.000574 L18.0498926,16.000574 C18.1536504,15.4888066 18.4137304,15.033778 18.7781306,14.6874903 L16.3746584,10.8427257 Z"/></svg>