<?xml version="1.0" encoding="UTF-8"?>
<svg id="Layer_1" data-name="Layer 1" xmlns="http://www.w3.org/2000/svg" viewBox="0 0 27 23.4">
  <defs>
    <style>
      .cls-1 {
        fill: #fff;
        stroke-width: 0px;
      }
    </style>
  </defs>
  <path class="cls-1" d="M13.5,0c2.49,0,4.5,2.01,4.5,4.5,0,1.28-.54,2.44-1.4,3.26l4.33,6.92c.49-.18,1.02-.28,1.57-.28,2.49,0,4.5,2.01,4.5,4.5s-2.01,4.5-4.5,4.5c-2.18,0-3.99-1.55-4.41-3.6h-9.18c-.42,2.05-2.23,3.6-4.41,3.6-2.49,0-4.5-2.01-4.5-4.5s2.01-4.5,4.5-4.5c.55,0,1.08.1,1.57.28l4.33-6.92c-.86-.82-1.4-1.98-1.4-3.26,0-2.49,2.01-4.5,4.5-4.5ZM15.07,8.72c-.49.18-1.02.28-1.57.28s-1.08-.1-1.57-.28l-4.33,6.92c.66.62,1.12,1.44,1.31,2.36h9.18c.19-.92.65-1.74,1.31-2.36l-4.33-6.92Z"/>
</svg>