<svg xmlns="http://www.w3.org/2000/svg" width="31" height="25" viewBox="0 0 31 25"><path fill="#FFF" d="M15.5,19 C19.0898509,19 22,16.0898509 22,12.5 C22,8.91014913 19.0898509,6 15.5,6 C11.9101491,6 9,8.91014913 9,12.5 C9,16.0898509 11.9101491,19 15.5,19 Z M15.5,20 C11.3578644,20 8,16.6421356 8,12.5 C8,8.35786438 11.3578644,5 15.5,5 C19.6421356,5 23,8.35786438 23,12.5 C23,16.6421356 19.6421356,20 15.5,20 Z M12.8076923,12.25 L12,13 L14.1538462,15 L19,10.75 L18.1923077,10 L14.1538462,13.5 L12.8076923,12.25 Z"/></svg>