<svg xmlns="http://www.w3.org/2000/svg" width="31" height="25" viewBox="0 0 31 25"><path fill="#FFF" d="M15.5004012,6 C19.0896241,6 22,8.9103759 22,12.4995988 C22,16.0904265 19.0896241,19 15.5004012,19 C11.9095735,19 9,16.0904265 9,12.4995988 C9,8.90957348 11.9095735,6 15.5004012,6 Z M15.5004012,7 C12.4619632,7 10,9.46175327 10,12.4995988 C10,15.5381418 12.4618582,18 15.5004012,18 C18.5377406,18 21,15.5377406 21,12.4995988 C21,9.46266065 18.5373393,7 15.5004012,7 Z M16,8 L16,12.292 L16.2071068,12.5 L16,12.706 L16,13 L15.706,13 L13.4393398,15.267767 L12.732233,14.5606602 L15,12.292 L15,8 L16,8 Z"/></svg>