<svg xmlns="http://www.w3.org/2000/svg" width="31" height="25" viewBox="0 0 31 25"><path fill="#FFF" fill-rule="evenodd" d="M13,14.0008358 L10.4315238,16.5698338 C11.6228861,18.0516314 13.4506914,19 15.5,19 C18.5732818,19 21.1484019,16.8671162 21.8258699,14.000839 L22.8498515,14.0005978 C22.154715,17.4236604 19.1282257,20 15.5,20 C13.1746501,20 11.0964693,18.941743 9.72079362,17.2805649 L8,19 L8,14 L13,14.0008358 Z M21.8261066,11.0001627 L18,10.9991642 L20.5688925,8.43068402 C19.3775397,6.94858953 17.5495473,6 15.5,6 C12.4263602,6 9.85099822,8.1333807 9.17389342,11.0001627 L8.14994476,11.000406 C8.84469335,7.57684326 11.8714197,5 15.5,5 C17.8255772,5 19.903937,6.05846392 21.2796098,7.71992231 L23,6 L23,11 L21.8261066,11.0001627 Z"/></svg>